<svg xmlns="http://www.w3.org/2000/svg" viewBox="0 0 143.88 134.3"><defs><style>.cls-1{fill:#45b864;}</style></defs><g id="Layer_2" data-name="Layer 2"><g id="Layer_1-2" data-name="Layer 1"><path class="cls-1" d="M124.34,57.15h0c-1.77,1.65-2,2.12-1.29,2.61a4,4,0,0,0,2.5.07,38.39,38.39,0,0,1,6.9-.26c7.41.25,9-.35,11.29-4.36l.14-.26V51.53c-4.47.4-16.48,2.75-17.38,3.6Z"/><path class="cls-1" d="M129.57,47.83c-1.75,1.74-2.39,3.08-1.71,3.56a1.29,1.29,0,0,0,1.21-.25c.44-.3,3.7-.65,7.25-.79a58.79,58.79,0,0,0,7.56-.72V42.79c-.88.21-1.8.39-2.7.53C135.13,44.26,131.87,45.52,129.57,47.83Z"/><path class="cls-1" d="M136.62,36h0c-1.87,1.12-5.25,5.32-4.62,5.76a9.74,9.74,0,0,0,3.19-.31c1.56-.3,5.18-.78,8-1.06l.65-.08V33.54l-.92.24A32.34,32.34,0,0,0,136.62,36Z"/><path class="cls-1" d="M120.18,88a30.77,30.77,0,0,1-7-.53c-6.29-1-9.76-.71-12.49.92h0c-2.29,1.38-3.09,2.43-2,2.64.48.09,3.58.81,6.91,1.6,9.56,2.26,10.42,2.3,12.49.6,2.29-1.88,4.4-4.82,3.78-5.26A2.82,2.82,0,0,0,120.18,88Z"/><path class="cls-1" d="M126.07,79.57a23.64,23.64,0,0,1-6.18,0c-4.88-.64-8.8-.14-11.93,1.54h0c-2.53,1.35-3.86,2.55-3,2.68l5.41.93c2.69.47,5.45.92,6.14,1a5.36,5.36,0,0,1,1.93.6c.91.6,3.86.3,5.57-.56s5.34-5.87,4.68-6.33A6,6,0,0,0,126.07,79.57Z"/><path class="cls-1" d="M124.08,71c-4.69-.11-7.2.52-10,2.48h0c-3.28,2.33-3.25,2.89.11,2.86a56.39,56.39,0,0,1,7.3.92,25.29,25.29,0,0,0,6.88.53c2-.47,5-3.45,5.88-5.91l.64-1.67-3.2.45A59.13,59.13,0,0,1,124.08,71Z"/><path class="cls-1" d="M127.27,62.53a16.1,16.1,0,0,0-6.74,2.12c-2.36,1.69-3.76,3.25-3.23,3.61a10.15,10.15,0,0,0,2.92,0c1.43-.12,5.35-.11,8.7,0,6.81.25,8.38-.49,10.65-5.05l1.29-2.6-4.53.66C133.84,61.68,129.76,62.22,127.27,62.53Z"/><path class="cls-1" d="M143.17,2.23l-.56,2.56,1.27-.74V0A12.1,12.1,0,0,0,143.17,2.23Z"/><path class="cls-1" d="M140.85,25.65c-2.58,1.35-6.09,6.31-5,7.07.43.3.92.36,1.08.13A43.21,43.21,0,0,1,143.88,31V24.41a28.79,28.79,0,0,0-3,1.24Z"/><path class="cls-1" d="M140.29,19.13c-2.61,3.69-2.56,5.57.11,4a23,23,0,0,1,3.48-1.31V16A11.8,11.8,0,0,0,140.29,19.13Z"/><path class="cls-1" d="M143.88,12.71V8.41l-.15.21C140.74,12.88,140.53,13.78,143.88,12.71Z"/><path class="cls-1" d="M43.75,133.44c-6.41-4.56-6.62-4.66-10.13-4.82h0c-2-.09-3.73,0-3.9.29s.86,1.34,2.3,2.43a41.35,41.35,0,0,1,3.43,3H45Z"/><path class="cls-1" d="M22.85,130.83l-3.39-.09,2.69,2.84.68.72h8.09C26.58,131.13,25.52,130.9,22.85,130.83Z"/><path class="cls-1" d="M47.85,126.2a13.5,13.5,0,0,0-5.28-.56h0a8.32,8.32,0,0,0-3.29.8c-.18.25.87,1.3,2.33,2.33a62.47,62.47,0,0,1,5.87,4.94c.22.22.42.4.62.59H61C58.8,132.46,50.27,127.11,47.85,126.2Z"/><path class="cls-1" d="M10.28,132.19c-.88,0-.74.44.67,1.84.08.07.17.18.26.27H18A19.58,19.58,0,0,0,10.28,132.19Z"/><path class="cls-1" d="M113,96.13a25.17,25.17,0,0,1-6.34-.83c-6.61-1.45-8.24-1.48-11.86-.23h0c-3.39,1.17-4.63,2.4-2.84,2.82,1.55.36,8.19,2.5,11.34,3.65,4.23,1.55,6.21,1,9.78-2.76C115.25,96.49,115.23,95.52,113,96.13Z"/><path class="cls-1" d="M2.73,133.39h0A5.92,5.92,0,0,0,0,133.31c-.06.09.11.47.44,1h5A10.24,10.24,0,0,0,2.73,133.39Z"/><path class="cls-1" d="M96.62,110.8a42.33,42.33,0,0,1-7-2.07c-5.25-2-8.47-2.28-11.88-.93s-3.56,1.62-.71,2.42c2.29.65,4.57,1.68,9.84,4.46,3.68,1.94,6,1.89,8.82-.19C99.63,111.62,99.72,111.26,96.62,110.8Z"/><path class="cls-1" d="M55.82,128.41c8.29,5.52,8.28,5.52,14,2.62l2.48-1.27-1.49-.46a30,30,0,0,1-8.67-4.18c-3.79-2.63-7-3.71-10.09-3.44C47.13,122.12,47.59,122.92,55.82,128.41Z"/><path class="cls-1" d="M98.8,102.61a16.46,16.46,0,0,0-11.61-.86,23.56,23.56,0,0,0-4.13,1.31c-.55.77.11,1.33,1.86,1.59a39.85,39.85,0,0,1,6.69,2.4,61.57,61.57,0,0,0,6.61,2.54c2,.49,6.48-1.66,8.06-3.92l1-1.43-3.14-.27A18.07,18.07,0,0,1,98.8,102.61Z"/><path class="cls-1" d="M88.14,117.39a39.49,39.49,0,0,1-6-2.19c-5.72-2.47-9.32-3-12.7-2s-3.48,1.31-1.05,2.22a68.73,68.73,0,0,1,7.37,4c6.32,3.8,8.07,4,11.58,1.08C89.93,118.31,90.11,117.62,88.14,117.39Z"/><path class="cls-1" d="M58,119.56A77.9,77.9,0,0,1,65.43,124c4.46,2.9,6.84,4.13,8.1,4.17,1.64.05,8.52-3.16,8.39-3.91a5,5,0,0,0-2.3-.62,27.79,27.79,0,0,1-6.7-2.73c-5.32-2.89-8-3.5-12.32-2.86C57,118.6,56.28,119,58,119.56Z"/></g></g></svg>